<svg width="27" height="28" viewBox="0 0 27 28" fill="none" xmlns="http://www.w3.org/2000/svg">
<g clip-path="url(#clip0_10_316)">
<path d="M24.7506 0H2.24944C1.00744 0 0 1.04475 0 2.33275V25.6672C0 26.9552 1.00744 28 2.24944 28H14.6256V17.5H11.2506V12.8328H14.6256V9.8175C14.6256 6.20025 16.7552 4.2315 19.8669 4.2315C21.357 4.2315 22.6378 4.347 23.0107 4.39775V8.17775H20.8524C19.1616 8.17775 18.8342 9.0125 18.8342 10.2358V12.8345H23.8292L22.7036 17.5H18.8342V28H24.7506C25.9926 28 27 26.9552 27 25.6672V2.33275C27 1.04475 25.9926 0 24.7506 0Z" fill="white"/>
</g>
<defs>
<clipPath id="clip0_10_316">
<rect width="27" height="28" fill="white"/>
</clipPath>
</defs>
</svg>
