<svg width="27" height="28" viewBox="0 0 27 28" fill="none" xmlns="http://www.w3.org/2000/svg">
<g clip-path="url(#clip0_10_312)">
<path fill-rule="evenodd" clip-rule="evenodd" d="M13.5 0C9.83306 0 9.37406 0.0175 7.93463 0.084C6.49688 0.154 5.51813 0.3885 4.6575 0.735C3.75631 1.08598 2.94014 1.6373 2.26631 2.35025C1.51538 3.12725 1.05131 3.90775 0.70875 4.83C0.374625 5.7225 0.146812 6.7375 0.081 8.2285C0.0135 9.72125 0 10.1972 0 14C0 17.8027 0.016875 18.2788 0.081 19.7715C0.1485 21.2625 0.374625 22.2792 0.70875 23.17C1.053 24.0905 1.51538 24.8727 2.26631 25.6497C3.01556 26.4285 3.76819 26.9097 4.6575 27.265C5.51813 27.6115 6.49688 27.8477 7.93463 27.916C9.37406 27.986 9.83306 28 13.5 28C17.1669 28 17.6259 27.9825 19.0654 27.916C20.5031 27.846 21.4836 27.6115 22.3425 27.265C23.2437 26.914 24.0599 26.3627 24.7337 25.6497C25.4846 24.8727 25.9487 24.0922 26.2913 23.17C26.6254 22.2775 26.8532 21.2625 26.919 19.7715C26.9865 18.2788 27 17.8027 27 14C27 10.1972 26.9831 9.72125 26.919 8.2285C26.8515 6.7375 26.6254 5.72075 26.2913 4.83C25.9528 3.89543 25.4212 3.04904 24.7337 2.35025C24.0606 1.63633 23.2442 1.08485 22.3425 0.735C21.4819 0.3885 20.5031 0.15225 19.0654 0.084C17.6259 0.014 17.1669 0 13.5 0ZM13.5 2.52C17.1045 2.52 17.5331 2.5375 18.9557 2.604C20.2719 2.667 20.9858 2.8945 21.4616 3.087C22.0928 3.34075 22.5416 3.6435 23.0141 4.1335C23.4866 4.6235 23.7786 5.089 24.0233 5.7435C24.2089 6.237 24.4282 6.97725 24.489 8.34225C24.5531 9.81925 24.5683 10.262 24.5683 14C24.5683 17.738 24.5514 18.1825 24.4839 19.6577C24.4164 21.0227 24.1971 21.763 24.0114 22.2565C23.7583 22.911 23.4714 23.3765 22.9989 23.8665C22.5264 24.3565 22.0708 24.6593 21.4464 24.913C20.9739 25.1055 20.2483 25.333 18.9321 25.396C17.4977 25.4625 17.0758 25.4783 13.4646 25.4783C9.85331 25.4783 9.43144 25.4608 7.99706 25.3907C6.68081 25.3207 5.95519 25.0933 5.48269 24.9007C4.89627 24.675 4.36587 24.3162 3.93019 23.8507C3.45769 23.3608 3.15394 22.8882 2.91769 22.2407C2.73206 21.7507 2.51269 20.9982 2.44519 19.6332C2.39456 18.1632 2.37769 17.7083 2.37769 13.9808C2.37769 10.2532 2.39456 9.79825 2.44519 8.31075C2.51269 6.94575 2.73206 6.19325 2.91769 5.70325C3.15394 5.03825 3.45769 4.58325 3.93019 4.09325C4.40269 3.60325 4.84144 3.28825 5.48269 3.04325C5.95519 2.85075 6.66394 2.62325 7.98019 2.55325C9.41456 2.50075 9.83644 2.48325 13.4477 2.48325L13.5 2.52ZM13.5 6.811C12.5807 6.79612 11.6676 6.97106 10.8141 7.32562C9.96058 7.68018 9.1836 8.20728 8.52839 8.87623C7.87319 9.54519 7.35285 10.3426 6.99768 11.2221C6.64251 12.1016 6.4596 13.0456 6.4596 13.9991C6.4596 14.9526 6.64251 15.8966 6.99768 16.7761C7.35285 17.6556 7.87319 18.4531 8.52839 19.122C9.1836 19.791 9.96058 20.3181 10.8141 20.6726C11.6676 21.0272 12.5807 21.2021 13.5 21.1873C15.3196 21.1578 17.0551 20.3875 18.3318 19.0427C19.6085 17.6979 20.3241 15.8863 20.3241 13.9991C20.3241 12.1119 19.6085 10.3004 18.3318 8.95554C17.0551 7.61071 15.3196 6.84044 13.5 6.811ZM13.5 18.6672C12.3064 18.6672 11.1616 18.1755 10.3176 17.3002C9.4736 16.425 8.99944 15.2378 8.99944 14C8.99944 12.7622 9.4736 11.575 10.3176 10.6998C11.1616 9.82448 12.3064 9.33275 13.5 9.33275C14.6936 9.33275 15.8384 9.82448 16.6824 10.6998C17.5264 11.575 18.0006 12.7622 18.0006 14C18.0006 15.2378 17.5264 16.425 16.6824 17.3002C15.8384 18.1755 14.6936 18.6672 13.5 18.6672ZM22.3256 6.5275C22.3256 6.97306 22.1549 7.40038 21.8511 7.71544C21.5473 8.0305 21.1353 8.2075 20.7056 8.2075C20.276 8.2075 19.8639 8.0305 19.5601 7.71544C19.2563 7.40038 19.0856 6.97306 19.0856 6.5275C19.0856 6.08194 19.2563 5.65462 19.5601 5.33956C19.8639 5.0245 20.276 4.8475 20.7056 4.8475C21.1353 4.8475 21.5473 5.0245 21.8511 5.33956C22.1549 5.65462 22.3256 6.08194 22.3256 6.5275Z" fill="white"/>
</g>
<defs>
<clipPath id="clip0_10_312">
<rect width="27" height="28" fill="white"/>
</clipPath>
</defs>
</svg>
