<svg width="54" height="54" viewBox="0 0 54 54" fill="none" xmlns="http://www.w3.org/2000/svg">
<path d="M10.395 40.77C12.69 39.015 15.255 37.6313 18.09 36.6188C20.925 35.6063 23.895 35.1 27 35.1C30.105 35.1 33.075 35.6063 35.91 36.6188C38.745 37.6313 41.31 39.015 43.605 40.77C45.18 38.925 46.4062 36.8325 47.2838 34.4925C48.1613 32.1525 48.6 29.655 48.6 27C48.6 21.015 46.4963 15.9188 42.2888 11.7113C38.0813 7.50375 32.985 5.4 27 5.4C21.015 5.4 15.9188 7.50375 11.7113 11.7113C7.50375 15.9188 5.4 21.015 5.4 27C5.4 29.655 5.83875 32.1525 6.71625 34.4925C7.59375 36.8325 8.82 38.925 10.395 40.77ZM27 29.7C24.345 29.7 22.1063 28.7888 20.2838 26.9663C18.4613 25.1438 17.55 22.905 17.55 20.25C17.55 17.595 18.4613 15.3563 20.2838 13.5338C22.1063 11.7113 24.345 10.8 27 10.8C29.655 10.8 31.8938 11.7113 33.7163 13.5338C35.5387 15.3563 36.45 17.595 36.45 20.25C36.45 22.905 35.5387 25.1438 33.7163 26.9663C31.8938 28.7888 29.655 29.7 27 29.7ZM27 54C23.265 54 19.755 53.2913 16.47 51.8738C13.185 50.4563 10.3275 48.5325 7.8975 46.1025C5.4675 43.6725 3.54375 40.815 2.12625 37.53C0.70875 34.245 0 30.735 0 27C0 23.265 0.70875 19.755 2.12625 16.47C3.54375 13.185 5.4675 10.3275 7.8975 7.8975C10.3275 5.4675 13.185 3.54375 16.47 2.12625C19.755 0.70875 23.265 0 27 0C30.735 0 34.245 0.70875 37.53 2.12625C40.815 3.54375 43.6725 5.4675 46.1025 7.8975C48.5325 10.3275 50.4563 13.185 51.8738 16.47C53.2913 19.755 54 23.265 54 27C54 30.735 53.2913 34.245 51.8738 37.53C50.4563 40.815 48.5325 43.6725 46.1025 46.1025C43.6725 48.5325 40.815 50.4563 37.53 51.8738C34.245 53.2913 30.735 54 27 54ZM27 48.6C29.385 48.6 31.635 48.2513 33.75 47.5538C35.865 46.8563 37.8 45.855 39.555 44.55C37.8 43.245 35.865 42.2438 33.75 41.5463C31.635 40.8488 29.385 40.5 27 40.5C24.615 40.5 22.365 40.8488 20.25 41.5463C18.135 42.2438 16.2 43.245 14.445 44.55C16.2 45.855 18.135 46.8563 20.25 47.5538C22.365 48.2513 24.615 48.6 27 48.6ZM27 24.3C28.17 24.3 29.1375 23.9175 29.9025 23.1525C30.6675 22.3875 31.05 21.42 31.05 20.25C31.05 19.08 30.6675 18.1125 29.9025 17.3475C29.1375 16.5825 28.17 16.2 27 16.2C25.83 16.2 24.8625 16.5825 24.0975 17.3475C23.3325 18.1125 22.95 19.08 22.95 20.25C22.95 21.42 23.3325 22.3875 24.0975 23.1525C24.8625 23.9175 25.83 24.3 27 24.3Z" fill="white"/>
</svg>
