<svg width="53" height="52" viewBox="0 0 53 52" fill="none" xmlns="http://www.w3.org/2000/svg">
<path d="M16.0833 51.8333C14.6624 51.8333 13.4461 51.3274 12.4343 50.3156C11.4225 49.3038 10.9166 48.0875 10.9166 46.6666C10.9166 45.2458 11.4225 44.0295 12.4343 43.0177C13.4461 42.0059 14.6624 41.5 16.0833 41.5C17.5041 41.5 18.7204 42.0059 19.7322 43.0177C20.744 44.0295 21.2499 45.2458 21.2499 46.6666C21.2499 48.0875 20.744 49.3038 19.7322 50.3156C18.7204 51.3274 17.5041 51.8333 16.0833 51.8333ZM41.9166 51.8333C40.4958 51.8333 39.2794 51.3274 38.2676 50.3156C37.2558 49.3038 36.7499 48.0875 36.7499 46.6666C36.7499 45.2458 37.2558 44.0295 38.2676 43.0177C39.2794 42.0059 40.4958 41.5 41.9166 41.5C43.3374 41.5 44.5537 42.0059 45.5655 43.0177C46.5773 44.0295 47.0833 45.2458 47.0833 46.6666C47.0833 48.0875 46.5773 49.3038 45.5655 50.3156C44.5537 51.3274 43.3374 51.8333 41.9166 51.8333ZM13.8874 10.5L20.0874 23.4166H38.1707L45.2749 10.5H13.8874ZM11.4333 5.33329H49.5374C50.5277 5.33329 51.2812 5.77461 51.7978 6.65725C52.3145 7.53989 52.336 8.43329 51.8624 9.33746L42.6916 25.8708C42.218 26.7319 41.5829 27.3993 40.7864 27.8729C39.9898 28.3465 39.118 28.5833 38.1707 28.5833H18.9249L16.0833 33.75H47.0833V38.9166H16.0833C14.1458 38.9166 12.6819 38.0663 11.6916 36.3656C10.7013 34.6649 10.6583 32.975 11.5624 31.2958L15.0499 24.9666L5.74992 5.33329H0.583252V0.166626H8.97908L11.4333 5.33329Z" fill="white"/>
</svg>
