<svg width="30" height="31" viewBox="0 0 30 31" fill="none" xmlns="http://www.w3.org/2000/svg">
<path d="M3.66659 30.1667V14.5833H0.833252V6.08332H8.19992C8.08186 5.87082 8.00513 5.64652 7.96971 5.41041C7.93429 5.1743 7.91659 4.92638 7.91659 4.66666C7.91659 3.4861 8.32978 2.48263 9.15617 1.65624C9.98256 0.829851 10.986 0.416656 12.1666 0.416656C12.7096 0.416656 13.2173 0.517004 13.6895 0.717698C14.1617 0.918393 14.5985 1.19582 14.9999 1.54999C15.4013 1.17221 15.8381 0.888879 16.3103 0.69999C16.7826 0.511101 17.2902 0.416656 17.8333 0.416656C19.0138 0.416656 20.0173 0.829851 20.8437 1.65624C21.6701 2.48263 22.0833 3.4861 22.0833 4.66666C22.0833 4.92638 22.0596 5.16839 22.0124 5.3927C21.9652 5.617 21.8944 5.84721 21.7999 6.08332H29.1666V14.5833H26.3333V30.1667H3.66659ZM17.8333 3.24999C17.4319 3.24999 17.0954 3.38575 16.8239 3.65728C16.5523 3.92881 16.4166 4.26527 16.4166 4.66666C16.4166 5.06805 16.5523 5.4045 16.8239 5.67603C17.0954 5.94756 17.4319 6.08332 17.8333 6.08332C18.2346 6.08332 18.5711 5.94756 18.8426 5.67603C19.1142 5.4045 19.2499 5.06805 19.2499 4.66666C19.2499 4.26527 19.1142 3.92881 18.8426 3.65728C18.5711 3.38575 18.2346 3.24999 17.8333 3.24999ZM10.7499 4.66666C10.7499 5.06805 10.8857 5.4045 11.1572 5.67603C11.4287 5.94756 11.7652 6.08332 12.1666 6.08332C12.568 6.08332 12.9044 5.94756 13.176 5.67603C13.4475 5.4045 13.5833 5.06805 13.5833 4.66666C13.5833 4.26527 13.4475 3.92881 13.176 3.65728C12.9044 3.38575 12.568 3.24999 12.1666 3.24999C11.7652 3.24999 11.4287 3.38575 11.1572 3.65728C10.8857 3.92881 10.7499 4.26527 10.7499 4.66666ZM3.66659 8.91666V11.75H13.5833V8.91666H3.66659ZM13.5833 27.3333V14.5833H6.49992V27.3333H13.5833ZM16.4166 27.3333H23.4999V14.5833H16.4166V27.3333ZM26.3333 11.75V8.91666H16.4166V11.75H26.3333Z" fill="black"/>
</svg>
