<svg width="24" height="30" viewBox="0 0 24 30" fill="none" xmlns="http://www.w3.org/2000/svg">
<path d="M0.666748 24.9167V22.0833H3.50008V12.1667C3.50008 10.207 4.09036 8.46564 5.27091 6.94272C6.45147 5.4198 7.98619 4.42223 9.87508 3.95001V2.95834C9.87508 2.36807 10.0817 1.86633 10.4949 1.45314C10.9081 1.03994 11.4098 0.833344 12.0001 0.833344C12.5904 0.833344 13.0921 1.03994 13.5053 1.45314C13.9185 1.86633 14.1251 2.36807 14.1251 2.95834V3.95001C16.014 4.42223 17.5487 5.4198 18.7292 6.94272C19.9098 8.46564 20.5001 10.207 20.5001 12.1667V22.0833H23.3334V24.9167H0.666748ZM12.0001 29.1667C11.2209 29.1667 10.5539 28.8892 9.99904 28.3344C9.44418 27.7795 9.16675 27.1125 9.16675 26.3333H14.8334C14.8334 27.1125 14.556 27.7795 14.0011 28.3344C13.4463 28.8892 12.7792 29.1667 12.0001 29.1667ZM6.33341 22.0833H17.6667V12.1667C17.6667 10.6083 17.1119 9.27432 16.0022 8.16459C14.8924 7.05487 13.5584 6.50001 12.0001 6.50001C10.4417 6.50001 9.10772 7.05487 7.998 8.16459C6.88828 9.27432 6.33341 10.6083 6.33341 12.1667V22.0833Z" fill="black"/>
</svg>
