<svg width="24" height="21" viewBox="0 0 24 21" fill="none" xmlns="http://www.w3.org/2000/svg">
<g clip-path="url(#clip0_10_314)">
<path fill-rule="evenodd" clip-rule="evenodd" d="M23.9537 2.50075C23.0594 2.92621 22.1057 3.20723 21.1269 3.33375C22.1682 2.6526 22.9362 1.6134 23.292 0.40425C22.3423 0.99925 21.288 1.43675 20.1669 1.67825C19.7195 1.15352 19.1675 0.732364 18.5479 0.44294C17.9282 0.153517 17.2551 0.00250367 16.5737 0C13.8566 0 11.6537 2.373 11.6537 5.29375C11.6537 5.71375 11.6983 6.11625 11.7806 6.50475C7.692 6.29475 4.06629 4.18075 1.63886 0.98525C1.212 1.7605 0.973714 2.66525 0.973714 3.64875C0.973714 5.488 1.84286 7.10675 3.16114 8.05875C2.37594 8.03098 1.60994 7.80361 0.932571 7.39725V7.46025C0.932571 10.0275 2.62629 12.1712 4.87886 12.6577C4.15896 12.8651 3.40133 12.8963 2.66743 12.7487C3.29829 14.8523 5.112 16.3835 7.27029 16.4272C6.26965 17.2808 5.10826 17.9158 3.85782 18.2933C2.60737 18.6707 1.29442 18.7825 0 18.6217C2.2285 20.1682 4.86021 20.9967 7.55486 21C16.6097 21 21.5571 12.9307 21.5571 5.943C21.5571 5.7155 21.5571 5.48975 21.54 5.264C22.5 4.522 23.34 3.58575 24 2.52175L23.9537 2.50075Z" fill="white"/>
</g>
<defs>
<clipPath id="clip0_10_314">
<rect width="24" height="21" fill="white"/>
</clipPath>
</defs>
</svg>
